<svg width="120" height="120" viewBox="0 0 120 120" fill="none" xmlns="http://www.w3.org/2000/svg">
<g id="017-file" clip-path="url(#clip0_83_221)">
<path id="Vector" d="M103.445 0H35.6075C32.0297 0 29.1193 2.91047 29.1193 6.4882V9.51891H26.0815C22.5038 9.51891 19.5933 12.4294 19.5933 16.0071V19.0376H16.5575C12.9788 19.0376 10.0676 21.9476 10.0676 25.5244V113.514C10.0676 117.09 12.9788 120 16.5575 120H84.3912C87.9697 120 90.8811 117.09 90.8811 113.514V110.482H93.9188C97.4965 110.482 100.407 107.571 100.407 103.993V100.963H103.445C107.022 100.963 109.933 98.0522 109.933 94.4745V6.4882C109.932 2.91047 107.022 0 103.445 0ZM84.3912 115.312H16.5575C15.5637 115.312 14.7551 114.506 14.7551 113.513V25.5239C14.7551 24.5318 15.5637 23.7246 16.5575 23.7246H68.9911V38.5702C68.9911 39.8644 70.0407 40.9139 71.3349 40.9139H86.1936V113.513C86.1933 114.506 85.385 115.312 84.3912 115.312ZM82.8757 36.2264H73.6786V27.0361L82.8757 36.2264ZM95.7193 103.993C95.7193 104.988 94.913 105.794 93.9186 105.794H90.8808V38.5819C90.8808 38.5812 90.8801 38.538 90.8789 38.4703C90.8689 37.8994 90.634 37.3545 90.2307 36.9499C90.2304 36.9497 90.2304 36.9497 90.2304 36.9497C90.2183 36.937 72.9914 19.7229 72.9914 19.7229C72.9891 19.7205 72.9633 19.6964 72.9228 19.6582C72.4929 19.256 71.9241 19.0331 71.3354 19.0371H71.3349H24.2808V16.0066C24.2808 15.0122 25.0871 14.2059 26.0815 14.2059H93.9186C94.913 14.2059 95.7193 15.0122 95.7193 16.0066V103.993ZM105.245 94.4745C105.245 95.4673 104.437 96.2754 103.444 96.2754H100.407V16.0069C100.407 12.4291 97.4961 9.51867 93.9183 9.51867H33.8068V6.4882C33.8068 5.49539 34.6147 4.6875 35.6075 4.6875H103.444C104.437 4.6875 105.245 5.49516 105.245 6.4882V94.4745Z" fill="#157FE1"/>
</g>
<defs>
<clipPath id="clip0_83_221">
<rect width="120" height="120" fill="white"/>
</clipPath>
</defs>
</svg>
