<svg width="120" height="120" viewBox="0 0 120 120" fill="none" xmlns="http://www.w3.org/2000/svg">
<g id="010-shaking hands" clip-path="url(#clip0_83_239)">
<g id="Group">
<path id="Vector" d="M33.8438 49.5317H53.171L58.3427 54.7034C58.8005 55.1609 59.4002 55.3899 60 55.3899C60.5998 55.3899 61.1998 55.1609 61.6573 54.7034L66.829 49.5317H86.1563C87.4507 49.5317 88.5 48.4821 88.5 47.1879V4.34204C88.5 3.04782 87.4507 1.99829 86.1563 1.99829H33.8438C32.5493 1.99829 31.5 3.04782 31.5 4.34204V47.1879C31.5 48.4821 32.5493 49.5317 33.8438 49.5317ZM36.1875 6.68579H83.8127V44.8442H65.8584C65.2369 44.8442 64.6406 45.0912 64.2012 45.5306L60 49.7313L55.7991 45.5304C55.3594 45.0909 54.7634 44.8439 54.1418 44.8439H36.1875V6.68579Z" fill="#157FE1"/>
<path id="Vector_2" d="M119.465 65.4255L109.606 53.4675C109.21 52.9872 108.64 52.6842 108.02 52.6251C107.402 52.5658 106.783 52.7559 106.304 53.1527L101.967 56.7412L96.1658 53.1344C90.2726 49.4711 82.7178 49.9804 77.3654 54.4021L64.5291 65.0074C62.3377 66.8186 62.0185 70.0708 63.8173 72.2575C64.7635 73.4076 65.9562 74.2825 67.2978 74.83L58.2038 82.3432L52.7035 77.7991C54.0451 77.2516 55.2378 76.3769 56.184 75.2266C57.9828 73.0399 57.6636 69.7877 55.4717 67.9762L42.6355 57.3712C37.2833 52.9497 29.728 52.4404 23.8351 56.1037L18.0329 59.71L13.6967 56.1218C13.2172 55.725 12.5994 55.5353 11.9801 55.5942C11.3605 55.6532 10.79 55.9563 10.3941 56.4365L0.53538 68.3948C-0.286808 69.3923 -0.146417 70.867 0.849208 71.6913L4.53101 74.7389L3.5314 81.5669C2.716 87.138 4.90296 92.8249 9.23936 96.4085L33.384 116.361C34.6681 117.422 36.3045 118.002 37.966 118.002C38.2147 118.002 38.4641 117.989 38.7127 117.963C40.5976 117.763 42.2729 116.848 43.4302 115.385C44.1397 114.489 44.5925 113.463 44.7983 112.402C45.4224 112.503 46.0613 112.522 46.6967 112.455C48.5816 112.256 50.2571 111.341 51.4147 109.878C52.0583 109.065 52.4905 108.146 52.7187 107.19C54.9392 107.737 57.3512 107.22 59.0994 105.648C59.9773 104.859 60.627 103.867 61.0058 102.772C62.7448 104.271 65.1052 104.757 67.2814 104.221C67.5099 105.177 67.9421 106.096 68.5857 106.909C69.7433 108.372 71.4186 109.287 73.3034 109.486C73.939 109.554 74.5779 109.533 75.2019 109.432C75.4076 110.493 75.8602 111.519 76.5697 112.416C77.727 113.879 79.4026 114.794 81.2874 114.993C81.5361 115.019 81.7852 115.033 82.0339 115.033C83.6954 115.033 85.3323 114.453 86.6162 113.392L110.761 93.4389C115.097 89.8551 117.284 84.1682 116.469 78.5976L115.469 71.7693L119.15 68.7218C120.147 67.8977 120.287 66.423 119.465 65.4255ZM56.739 93.2439C56.7017 93.2132 56.664 93.1839 56.6255 93.156L41.0956 80.3175C40.0981 79.4925 38.6208 79.6328 37.7958 80.6303C36.9713 81.6281 37.1112 83.1056 38.109 83.9301L54.275 97.2946C54.3066 97.3209 54.3387 97.346 54.3716 97.3701L55.7951 98.5509C56.3558 99.0145 56.686 99.7012 56.7015 100.436C56.7097 100.826 56.6248 101.57 55.966 102.162C55.1194 102.923 53.769 102.908 52.8242 102.127L51.9976 101.444C51.9976 101.444 51.9973 101.444 51.9973 101.444L35.1633 87.5278C34.1661 86.703 32.6886 86.8429 31.8636 87.8407C31.0388 88.8384 31.179 90.3159 32.1767 91.1404L47.3602 103.693C47.3673 103.699 47.3743 103.705 47.3815 103.711C48.3603 104.519 48.5206 105.981 47.739 106.969C47.3701 107.435 46.8251 107.728 46.2041 107.794C45.5394 107.864 44.8653 107.662 44.3579 107.243L42.4011 105.62C42.3952 105.615 42.3891 105.61 42.383 105.605C42.3467 105.575 42.3099 105.546 42.2724 105.519L29.2316 94.7374C28.2341 93.9124 26.7566 94.0525 25.9318 95.0503C25.107 96.048 25.2472 97.5255 26.2447 98.35L39.5016 109.31C40.3862 110.134 40.5073 111.525 39.7545 112.476C39.3858 112.942 38.8407 113.235 38.2198 113.301C37.5544 113.372 36.8808 113.17 36.3701 112.748L12.2255 92.7951C9.14397 90.2484 7.58983 86.2061 8.16944 82.2457L9.35983 74.1133C9.47843 73.3036 9.16577 72.4903 8.5353 71.9686L5.6403 69.5718L12.5173 61.2302L16.3437 64.3968C17.1202 65.039 18.2197 65.1131 19.0754 64.5818L26.3096 60.085C30.4906 57.4856 35.8515 57.8477 39.6498 60.9853L52.4855 71.5898C52.6892 71.7581 52.7241 72.0534 52.5638 72.2484C51.8553 73.1097 50.8531 73.6427 49.7419 73.7498C48.6212 73.8557 47.5255 73.5206 46.6543 72.8015L46.6536 72.8008C46.6536 72.8006 46.6536 72.8006 46.6536 72.8006C45.6558 71.9763 44.1783 72.1169 43.3541 73.1149C42.5295 74.1128 42.6704 75.5901 43.6681 76.4144L59.604 89.58C60.1163 90.0035 60.4433 90.6309 60.5014 91.3019C60.5555 91.9286 60.3723 92.5232 59.9846 92.9763C59.1692 93.929 57.7135 94.0493 56.739 93.2439ZM110.64 71.144L111.831 79.2766C112.411 83.2368 110.856 87.2793 107.775 89.8258L83.6302 109.779C83.1195 110.201 82.4447 110.402 81.7805 110.332C81.1594 110.266 80.6143 109.973 80.2456 109.507C79.4926 108.556 79.614 107.164 80.4992 106.34L93.7552 95.3814C94.753 94.5569 94.8931 93.0794 94.0681 92.0817C93.2433 91.0842 91.7658 90.9438 90.7683 91.7688L77.7254 102.552C77.6886 102.579 77.6523 102.607 77.6166 102.636C77.6105 102.641 77.6047 102.646 77.5986 102.651L75.6451 104.271C75.1344 104.693 74.4603 104.894 73.7954 104.824C73.1743 104.759 72.6291 104.466 72.2605 104C71.4795 103.013 71.6387 101.553 72.6148 100.744L72.6179 100.741C72.6273 100.734 72.6364 100.726 72.6458 100.718L87.823 88.1709C88.8207 87.3464 88.9606 85.8689 88.1361 84.8711C87.3111 83.8734 85.834 83.7335 84.8363 84.5582L68.0023 98.4747C67.9998 98.4768 67.9972 98.4792 67.9944 98.4813L67.1755 99.1582C66.2307 99.9389 64.88 99.9541 64.0337 99.1931C63.3751 98.601 63.2902 97.8571 63.2984 97.4664C63.3137 96.7319 63.6441 96.0452 64.208 95.5788L65.6267 94.402C65.6598 94.3774 65.6926 94.3518 65.7247 94.3253L81.8907 80.9606C82.8884 80.136 83.0283 78.6585 82.2038 77.6608C81.379 76.6633 79.9016 76.5229 78.9041 77.3479L64.7567 89.0439C64.3198 87.8517 63.5733 86.7801 62.5885 85.9664L61.8823 85.383L83.0865 67.8595L87.5485 73.2719C88.3719 74.2706 89.8489 74.4131 90.8478 73.5895C91.8465 72.7661 91.9887 71.2889 91.1651 70.2902L85.2101 63.067C84.8143 62.587 84.244 62.2839 83.6246 62.2246C83.0054 62.1658 82.388 62.3552 81.9083 62.7515L73.2683 69.8948C72.41 70.571 71.345 70.8839 70.258 70.7807C69.1468 70.6736 68.1444 70.1404 67.4361 69.2793C67.2755 69.0843 67.3107 68.7888 67.5139 68.6207L80.3499 58.016C84.1482 54.8784 89.5093 54.5163 93.6903 57.1155L100.924 61.6125C101.78 62.1443 102.88 62.07 103.656 61.4275L107.483 58.2609L114.359 66.6023L111.464 68.999C110.834 69.521 110.522 70.334 110.64 71.144Z" fill="#157FE1"/>
</g>
<circle id="Ellipse 2" cx="45" cy="25" r="4" fill="#157FE1"/>
<circle id="Ellipse 3" cx="60" cy="25" r="4" fill="#157FE1"/>
<circle id="Ellipse 4" cx="75" cy="25" r="4" fill="#157FE1"/>
</g>
<defs>
<clipPath id="clip0_83_239">
<rect width="120" height="120" fill="white"/>
</clipPath>
</defs>
</svg>
