<svg width="28" height="31" viewBox="0 0 28 31" fill="none" xmlns="http://www.w3.org/2000/svg">
<path d="M13.6309 9.01221C9.9043 9.01221 6.89844 12.0181 6.89844 15.7446C6.89844 19.4712 9.9043 22.477 13.6309 22.477C17.3574 22.477 20.3633 19.4712 20.3633 15.7446C20.3633 12.0181 17.3574 9.01221 13.6309 9.01221ZM13.6309 20.1216C11.2227 20.1216 9.25391 18.1587 9.25391 15.7446C9.25391 13.3306 11.2168 11.3677 13.6309 11.3677C16.0449 11.3677 18.0078 13.3306 18.0078 15.7446C18.0078 18.1587 16.0391 20.1216 13.6309 20.1216ZM22.209 8.73682C22.209 9.60986 21.5059 10.3071 20.6387 10.3071C19.7656 10.3071 19.0684 9.604 19.0684 8.73682C19.0684 7.86963 19.7715 7.1665 20.6387 7.1665C21.5059 7.1665 22.209 7.86963 22.209 8.73682ZM26.668 10.3306C26.5684 8.22705 26.0879 6.36377 24.5469 4.82861C23.0117 3.29346 21.1484 2.81299 19.0449 2.70752C16.877 2.58447 10.3789 2.58447 8.21094 2.70752C6.11328 2.80713 4.25 3.2876 2.70898 4.82275C1.16797 6.35791 0.693359 8.22119 0.587891 10.3247C0.464844 12.4927 0.464844 18.9907 0.587891 21.1587C0.6875 23.2622 1.16797 25.1255 2.70898 26.6606C4.25 28.1958 6.10742 28.6763 8.21094 28.7817C10.3789 28.9048 16.877 28.9048 19.0449 28.7817C21.1484 28.6821 23.0117 28.2017 24.5469 26.6606C26.082 25.1255 26.5625 23.2622 26.668 21.1587C26.791 18.9907 26.791 12.4985 26.668 10.3306ZM23.8672 23.4849C23.4102 24.6333 22.5254 25.5181 21.3711 25.981C19.6426 26.6665 15.541 26.5083 13.6309 26.5083C11.7207 26.5083 7.61328 26.6606 5.89062 25.981C4.74219 25.5239 3.85742 24.6392 3.39453 23.4849C2.70898 21.7563 2.86719 17.6548 2.86719 15.7446C2.86719 13.8345 2.71484 9.72705 3.39453 8.00439C3.85156 6.85596 4.73633 5.97119 5.89062 5.5083C7.61914 4.82275 11.7207 4.98096 13.6309 4.98096C15.541 4.98096 19.6484 4.82861 21.3711 5.5083C22.5195 5.96533 23.4043 6.8501 23.8672 8.00439C24.5527 9.73291 24.3945 13.8345 24.3945 15.7446C24.3945 17.6548 24.5527 21.7622 23.8672 23.4849Z" fill="white"/>
</svg>
