<svg width="27" height="31" viewBox="0 0 27 31" fill="none" xmlns="http://www.w3.org/2000/svg">
<path d="M24.375 2.625H1.86914C0.837891 2.625 0 3.47461 0 4.51758V26.9824C0 28.0254 0.837891 28.875 1.86914 28.875H24.375C25.4063 28.875 26.25 28.0254 26.25 26.9824V4.51758C26.25 3.47461 25.4063 2.625 24.375 2.625ZM7.93359 25.125H4.04297V12.5977H7.93945V25.125H7.93359ZM5.98828 10.8867C4.74023 10.8867 3.73242 9.87305 3.73242 8.63086C3.73242 7.38867 4.74023 6.375 5.98828 6.375C7.23047 6.375 8.24414 7.38867 8.24414 8.63086C8.24414 9.87891 7.23633 10.8867 5.98828 10.8867ZM22.5176 25.125H18.627V19.0312C18.627 17.5781 18.5977 15.709 16.6055 15.709C14.5781 15.709 14.2676 17.291 14.2676 18.9258V25.125H10.377V12.5977H14.1094V14.3086H14.1621C14.6836 13.3242 15.9551 12.2871 17.8477 12.2871C21.7852 12.2871 22.5176 14.8828 22.5176 18.2578V25.125Z" fill="white"/>
</svg>
