<svg width="2308" height="954" viewBox="0 0 2308 954" fill="none" xmlns="http://www.w3.org/2000/svg">
<path d="M902.999 954C901.889 953 900.479 953.28 899.189 953.2C776.9 944.898 662.545 889.678 579.999 799.07C525.399 739.157 488.343 669.823 468.829 591.07C465.999 579.57 463.519 568 461.679 556.33C461.579 555.71 461.569 555.07 461.529 554.52C462.909 553.61 464.279 553.92 465.529 553.92C487.703 553.92 509.869 553.92 532.029 553.92C535.459 553.92 536.139 553.32 537.139 558.14C551.429 627.14 581.469 688.41 627.739 741.54C678.813 800.207 741.596 840.853 816.089 863.48C857.978 876.034 901.637 881.655 945.339 880.12C1022.19 877.57 1092.81 855.12 1156.48 812.12C1235.11 758.94 1288.66 686.8 1317.3 596.3C1323.64 575.951 1328.29 555.113 1331.21 534C1334.85 508.747 1336.02 483.2 1334.72 457.72C1331.2 388.65 1311.59 324.43 1275.06 265.63C1233.83 199.257 1178.07 148.893 1107.78 114.54C1076.62 99.2991 1043.57 88.2819 1009.5 81.78C995.114 78.9809 980.585 76.9778 965.979 75.78C953.519 74.78 941.039 74.06 928.539 74.29C912.215 74.5364 895.917 75.6848 879.719 77.73C802.374 87.7458 729.631 120.112 670.409 170.86C652.265 186.345 635.532 203.412 620.409 221.86C619.409 223.14 618.249 224.4 617.249 225.73C616.917 226.207 616.464 226.589 615.938 226.836C615.411 227.084 614.829 227.188 614.249 227.14C613.749 227.14 613.249 227.14 612.749 227.14H609.749L173.259 227.2C172.594 227.255 171.925 227.255 171.259 227.2C167.749 226.59 166.089 228.26 164.509 231.37C157.999 244.16 143.819 251.21 128.639 247.3C121.701 245.553 115.576 241.472 111.292 235.741C107.009 230.01 104.829 222.979 105.119 215.83C105.403 208.606 108.143 201.696 112.887 196.241C117.631 190.786 124.095 187.113 131.209 185.83C143.209 183.66 158.009 189.42 164.649 202.5C165.019 203.24 165.419 203.98 165.729 204.75C165.897 205.222 166.212 205.628 166.628 205.908C167.044 206.187 167.539 206.324 168.039 206.3H171.539C292.539 206.3 413.539 206.3 534.539 206.3C540.539 206.3 539.199 206.76 542.539 202.03C559.382 178.193 578.397 155.969 599.339 135.64C662.199 74.84 736.126 34.0733 821.119 13.34C838.927 9.03193 856.985 5.83576 875.189 3.77C886.779 2.45 898.389 1.37 910.039 0.849998C914.039 0.669998 918.039 0.29 922.039 0H958.039C958.239 1.12 959.149 0.999996 959.949 1.09C966.749 1.67 973.549 2.22 980.349 2.84C995.928 4.32719 1011.42 6.64381 1026.75 9.78C1069.93 18.3625 1111.68 33.011 1150.75 53.29C1218.13 87.9896 1276.23 138.29 1320.23 200C1353.07 245.672 1377.45 296.862 1392.23 351.14C1397.66 371.057 1401.82 391.297 1404.69 411.74C1405.62 418.32 1406.31 424.95 1406.87 431.59C1407.27 436.38 1406.99 441.22 1407.99 445.97V512.97C1406.84 514.02 1407.19 515.44 1407.12 516.72C1406.94 519.88 1407.04 523.07 1406.69 526.2C1405.08 540.76 1402.99 555.2 1400.18 569.63C1392.09 611.184 1378.42 651.453 1359.53 689.34C1314.04 780.76 1240.54 855.265 1149.75 902C1113.3 920.751 1074.56 934.65 1034.5 943.34C1018.9 946.808 1003.12 949.422 987.239 951.17L970.359 952.94C969.669 953.01 969.079 953.16 968.999 954H902.999Z" fill="#157FE1"/>
<path d="M0 518C1.56 517.87 1.67999 516.64 1.92999 515.5C2.82204 511.418 4.58563 507.577 7.10001 504.24C10.2305 500.004 14.3662 496.614 19.1341 494.376C23.9019 492.138 29.1519 491.122 34.4106 491.419C39.6692 491.717 44.7711 493.319 49.2559 496.081C53.7408 498.843 57.4675 502.678 60.1 507.24C60.3076 507.501 60.476 507.791 60.6 508.1C61.44 511.88 64.13 512.1 67.38 512.1C137.533 512.04 207.687 512.023 277.84 512.05H451.84C456.33 512.05 456.35 512.18 456.06 507.68C455.12 493.2 454.9 478.68 455.26 464.21C455.35 460.38 455.68 456.56 455.83 452.73C455.94 450.05 455.67 449.78 453.19 449.73C452.03 449.73 450.86 449.73 449.69 449.73C391.87 449.73 334.05 449.707 276.23 449.66C272.39 449.66 269.33 450.01 268.23 454.3C264.803 460.493 259.376 465.341 252.837 468.051C246.298 470.761 239.033 471.173 232.23 469.22C225.468 467.491 219.492 463.519 215.28 457.953C211.067 452.388 208.868 445.558 209.04 438.58C209.37 424.49 219.97 411.95 233.81 409.08C240.626 407.614 247.734 408.425 254.045 411.39C260.355 414.354 265.517 419.308 268.74 425.49C269.04 426.08 269.35 426.67 269.61 427.28C269.771 427.754 270.083 428.163 270.499 428.443C270.914 428.723 271.41 428.859 271.91 428.83C273.24 428.83 274.58 428.83 275.91 428.83H320.91C389.063 428.83 457.217 428.857 525.37 428.91C527.37 428.91 529.71 428.1 531.17 429.44C532.78 430.94 531.31 433.2 531.17 435.11C529.232 454.345 528.618 473.691 529.33 493.01C529.89 505.82 530.84 518.61 532.65 531.32C532.657 531.657 532.616 531.994 532.53 532.32C531.72 533.15 530.69 532.95 529.71 532.97C528.38 532.97 527.04 532.97 525.71 532.97L68.8 533C66.8 533 64.65 532.67 62.87 533.32C61.09 533.97 60.87 536.57 59.75 538.22C52.36 549.46 41.9 554.59 28.62 553C15.93 551.47 7.35 544.23 2.81 532.27C2.28 530.88 1.99001 529.4 1.54001 527.97C1.44506 527.647 1.23755 527.368 0.955078 527.185C0.672606 527.002 0.333819 526.925 0 526.97V518Z" fill="#157FE1"/>
<path d="M962.06 144.93C960.56 145.66 959.06 146.39 957.57 147.1C932.89 158.87 908.82 171.74 886 186.86C865.23 200.61 845.75 215.93 828.66 234.12C814.66 249.02 802.74 265.39 793.91 283.92C786.86 298.479 782.1 314.039 779.8 330.05C778.884 335.806 778.336 341.614 778.16 347.44C777.687 372.967 785.454 397.966 800.31 418.73C811.43 434.59 825.31 447.64 840.92 459.03C858.48 471.88 877.53 482.11 897.38 490.9C904.83 494.21 912.44 497.16 920.02 500.19C932.79 505.102 944.726 511.952 955.41 520.5C974.82 536.36 987.1 556.63 992.92 580.93C996.16 595.087 997.106 609.673 995.72 624.13C994.086 642.578 989.452 660.635 982 677.59C972.786 699.284 959.445 718.983 942.72 735.59C929.31 748.82 914.11 759.49 896.61 766.69C885.967 771.048 874.77 773.902 863.34 775.17C848.34 776.89 833.79 774.95 819.29 771.49C781.22 762.4 747.19 745.14 716.88 720.49C687.69 696.75 664.36 668.11 646.07 635.3C629.389 605.249 617.665 572.705 611.35 538.92C609.207 527.463 607.678 515.9 606.77 504.28C605.643 489.494 605.446 474.651 606.18 459.84C606.746 448.7 607.928 437.6 609.72 426.59C612.912 406.017 618.004 385.784 624.93 366.15C637.46 330.71 654.82 297.85 678.01 268.15C702.03 237.287 731.874 211.439 765.85 192.07C794.97 175.39 826.06 163.77 858.66 156.07C874.045 152.421 889.628 149.656 905.33 147.79C916.91 146.41 928.5 145.36 940.15 144.74C946.47 144.4 952.78 144.03 959.15 144.01H962C962 144.31 962 144.62 962.06 144.93Z" fill="#F9E219"/>
<path d="M909.17 803.12C910.65 802.4 912.11 801.67 913.59 800.96C939.81 788.51 965.3 774.77 989.35 758.47C1009.42 744.87 1028.17 729.7 1044.61 711.81C1059.95 695.11 1072.61 676.66 1081.27 655.59C1086.92 641.872 1090.62 627.432 1092.27 612.69C1094.55 592.6 1092.27 573.14 1084.76 554.35C1078.99 540.289 1070.83 527.334 1060.64 516.06C1047.26 500.96 1031.5 488.74 1014.42 478.16C995.35 466.538 975.224 456.744 954.31 448.91C941.49 443.99 929.31 437.86 918.44 429.42C896.85 412.71 883.56 390.85 877.9 364.24C875.43 352.667 874.549 340.811 875.28 329C876.689 306.809 882.309 285.089 891.84 265C901.905 243.13 916.275 223.513 934.09 207.32C948.99 193.88 965.79 183.6 985.03 177.56C997.913 173.432 1011.43 171.62 1024.94 172.21C1035.42 172.874 1045.81 174.606 1055.94 177.38C1093.21 186.913 1127.84 204.782 1157.2 229.64C1193.39 259.95 1220.2 297.25 1239.02 340.39C1249.85 365.325 1257.47 391.535 1261.7 418.39C1263.56 429.399 1264.72 440.514 1265.17 451.67C1265.36 457.67 1265.79 463.67 1265.79 469.67C1265.8 500.679 1261.5 531.539 1253 561.36C1242.2 599.778 1224.89 636.055 1201.81 668.61C1170.28 712.91 1129.61 746.21 1080.25 768.93C1055.67 780.097 1029.92 788.505 1003.49 794C986.702 797.513 969.733 800.097 952.66 801.74C946.37 802.38 940.04 802.74 933.72 803.08C926.72 803.46 919.72 803.69 912.72 803.97C911.57 803.97 910.42 803.97 909.27 803.97L909.17 803.12Z" fill="#157FE1"/>
<path d="M599.759 248.07C599.369 250.41 598.259 251.48 597.439 252.7C583.112 273.994 570.862 296.614 560.859 320.25C560.56 320.846 560.3 321.461 560.079 322.09C559.539 324.09 558.169 324.6 556.289 324.48C555.129 324.41 553.959 324.48 552.789 324.48H486.789C480.059 324.48 480.569 323.93 480.559 330.63C480.559 334.8 480.559 338.96 480.559 343.13C480.559 344.72 481.069 345.13 482.689 345.22C484.019 345.29 485.359 345.22 486.689 345.22H545.169C546.669 345.22 548.169 345.22 549.659 345.35C549.829 345.349 549.996 345.391 550.144 345.472C550.293 345.553 550.419 345.67 550.51 345.813C550.601 345.956 550.654 346.12 550.664 346.289C550.675 346.458 550.642 346.627 550.569 346.78C550.309 347.78 550.009 348.7 549.689 349.65C543.732 367.319 539.076 385.401 535.759 403.75C535.607 404.57 535.41 405.381 535.169 406.18C535.014 406.634 534.823 407.075 534.599 407.5C533.099 408.11 531.599 407.87 530.099 407.87H465.099C459.409 407.87 460.099 407.97 460.789 403.15C463.476 385.372 467.25 367.776 472.089 350.46C473.709 344.63 472.929 345.19 468.249 345.19H338.249C337.583 345.235 336.915 345.235 336.249 345.19C334.039 344.87 332.979 346 332.109 347.91C329.124 354.899 323.552 360.464 316.559 363.44C304.649 368.5 293.269 367.3 283.319 358.89C273.369 350.48 269.649 339.23 273.179 326.5C276.639 314.03 285.179 306.5 297.949 303.83C304.551 302.592 311.376 303.531 317.398 306.507C323.42 309.482 328.313 314.334 331.339 320.33C332.949 323.59 334.809 324.44 338.189 324.43C383.836 324.33 429.502 324.307 475.189 324.36C476.189 324.36 477.189 324.36 478.189 324.36C478.775 324.393 479.354 324.218 479.823 323.864C480.292 323.511 480.62 323.003 480.749 322.43C481.399 320.54 482.089 318.67 482.749 316.78C490.618 294.652 500.149 273.151 511.259 252.46C513.939 247.46 513.139 248.05 518.449 248.05C544.109 248.05 569.776 248.05 595.449 248.05L599.759 248.07Z" fill="#157FE1"/>
<path d="M1548.79 216.981C1548.79 224.323 1547.41 230.685 1544.63 236.069C1541.85 241.453 1537.65 245.613 1532.01 248.55C1526.46 251.486 1519.47 252.954 1511.06 252.954C1498.98 252.954 1489.75 249.895 1483.38 243.778C1477.09 237.578 1473.94 228.809 1473.94 217.471V164.367H1497.71V215.635C1497.71 221.835 1498.85 226.321 1501.14 229.095C1503.51 231.868 1506.94 233.255 1511.43 233.255C1514.7 233.255 1517.31 232.643 1519.27 231.419C1521.31 230.196 1522.78 228.279 1523.68 225.669C1524.66 223.058 1525.15 219.673 1525.15 215.513V164.367H1548.79V216.981Z" fill="white"/>
<path d="M1644.33 251.731H1617.62L1600.35 218.327L1593.37 222.487V251.731H1569.6V164.367H1593.37V202.298C1594.35 200.422 1595.49 198.546 1596.8 196.67C1598.1 194.712 1599.37 192.877 1600.59 191.164L1618.97 164.367H1644.82L1617.26 203.522L1644.33 251.731Z" fill="white"/>
<path d="M1684.82 164.367C1692.74 164.367 1699.32 165.346 1704.54 167.304C1709.85 169.261 1713.81 172.157 1716.43 175.991C1719.12 179.743 1720.47 184.475 1720.47 190.185C1720.47 193.692 1719.86 196.914 1718.63 199.851C1717.49 202.788 1715.81 205.398 1713.61 207.682C1711.4 209.966 1708.75 211.964 1705.65 213.677L1731.13 251.731H1704.3L1685.8 219.918H1679.8V251.731H1656.15V164.367H1684.82ZM1684.45 182.231H1679.8V202.176H1684.21C1686.66 202.176 1688.78 201.849 1690.58 201.197C1692.46 200.463 1693.93 199.321 1694.99 197.771C1696.05 196.139 1696.58 193.978 1696.58 191.286C1696.58 189.41 1696.17 187.819 1695.36 186.514C1694.54 185.127 1693.23 184.067 1691.44 183.333C1689.64 182.598 1687.31 182.231 1684.45 182.231Z" fill="white"/>
<path d="M1795.17 251.731L1790.88 235.335H1762.46L1758.05 251.731H1732.08L1760.62 164H1792.11L1821.02 251.731H1795.17ZM1782.18 201.686C1781.77 200.136 1781.2 197.934 1780.47 195.079C1779.73 192.142 1779 189.124 1778.26 186.024C1777.53 182.925 1776.96 180.396 1776.55 178.438C1776.22 180.396 1775.69 182.843 1774.95 185.78C1774.3 188.716 1773.61 191.612 1772.87 194.467C1772.22 197.322 1771.65 199.729 1771.16 201.686L1767.36 216.002H1785.98L1782.18 201.686Z" fill="white"/>
<path d="M1873.15 251.731H1827.58V238.271L1838.48 234.111V181.864L1827.58 177.826V164.367H1873.15V177.826L1862.25 181.864V234.111L1873.15 238.271V251.731Z" fill="white"/>
<path d="M1972.56 251.731H1941.57L1909.59 190.185H1909.1C1909.26 191.571 1909.39 193.203 1909.47 195.079C1909.63 196.955 1909.75 198.913 1909.84 200.952C1909.92 202.991 1910 204.99 1910.08 206.948C1910.16 208.905 1910.2 210.7 1910.2 212.332V251.731H1889.25V164.367H1920.13L1951.98 225.057H1952.35C1952.26 223.67 1952.14 222.079 1951.98 220.285C1951.9 218.409 1951.81 216.532 1951.73 214.656C1951.65 212.699 1951.57 210.782 1951.49 208.905C1951.49 207.029 1951.49 205.357 1951.49 203.889V164.367H1972.56V251.731Z" fill="white"/>
<path d="M2034.18 251.731H1988.61V238.271L1999.51 234.111V181.864L1988.61 177.826V164.367H2034.18V177.826L2023.27 181.864V234.111L2034.18 238.271V251.731Z" fill="white"/>
<path d="M2103.94 251.731L2099.65 235.335H2071.23L2066.82 251.731H2040.85L2069.39 164H2100.87L2129.79 251.731H2103.94ZM2090.95 201.686C2090.54 200.136 2089.97 197.934 2089.24 195.079C2088.5 192.142 2087.77 189.124 2087.03 186.024C2086.3 182.925 2085.72 180.396 2085.32 178.438C2084.99 180.396 2084.46 182.843 2083.72 185.78C2083.07 188.716 2082.38 191.612 2081.64 194.467C2080.99 197.322 2080.42 199.729 2079.93 201.686L2076.13 216.002H2094.75L2090.95 201.686Z" fill="white"/>
<path d="M2224.92 251.731H2193.93L2161.95 190.185H2161.46C2161.63 191.571 2161.75 193.203 2161.83 195.079C2161.99 196.955 2162.12 198.913 2162.2 200.952C2162.28 202.991 2162.36 204.99 2162.44 206.948C2162.53 208.905 2162.57 210.7 2162.57 212.332V251.731H2141.62V164.367H2172.49L2204.34 225.057H2204.71C2204.63 223.67 2204.5 222.079 2204.34 220.285C2204.26 218.409 2204.18 216.532 2204.1 214.656C2204.01 212.699 2203.93 210.782 2203.85 208.905C2203.85 207.029 2203.85 205.357 2203.85 203.889V164.367H2224.92V251.731Z" fill="white"/>
<path d="M1557.74 385.742H1526.74L1494.77 324.196H1494.28C1494.44 325.583 1494.56 327.214 1494.65 329.09C1494.81 330.967 1494.93 332.924 1495.01 334.964C1495.1 337.003 1495.18 339.001 1495.26 340.959C1495.34 342.917 1495.38 344.711 1495.38 346.343V385.742H1474.43V298.378H1505.3L1537.16 359.068H1537.52C1537.44 357.681 1537.32 356.091 1537.16 354.296C1537.07 352.42 1536.99 350.544 1536.91 348.668C1536.83 346.71 1536.75 344.793 1536.67 342.917C1536.67 341.041 1536.67 339.368 1536.67 337.9V298.378H1557.74V385.742Z" fill="white"/>
<path d="M1632.71 385.742L1628.42 369.346H1600L1595.59 385.742H1569.62L1598.16 298.011H1629.65L1658.56 385.742H1632.71ZM1619.72 335.698C1619.31 334.148 1618.74 331.945 1618.01 329.09C1617.27 326.154 1616.54 323.136 1615.8 320.036C1615.07 316.936 1614.5 314.407 1614.09 312.45C1613.76 314.407 1613.23 316.855 1612.5 319.791C1611.84 322.728 1611.15 325.624 1610.41 328.479C1609.76 331.334 1609.19 333.74 1608.7 335.698L1604.9 350.014H1623.52L1619.72 335.698Z" fill="white"/>
<path d="M1700.37 385.742H1676.72V317.711H1655.41V298.378H1721.68V317.711H1700.37V385.742Z" fill="white"/>
<path d="M1776.91 385.742H1731.34V372.283L1742.24 368.123V315.876L1731.34 311.838V298.378H1776.91V311.838L1766.01 315.876V368.123L1776.91 372.283V385.742Z" fill="white"/>
<path d="M1874.85 341.938C1874.85 348.708 1874.03 354.867 1872.4 360.414C1870.76 365.879 1868.23 370.611 1864.8 374.608C1861.37 378.605 1856.96 381.664 1851.57 383.785C1846.26 385.905 1839.85 386.966 1832.34 386.966C1824.99 386.966 1818.61 385.905 1813.22 383.785C1807.92 381.664 1803.51 378.605 1799.99 374.608C1796.56 370.611 1793.99 365.879 1792.28 360.414C1790.64 354.867 1789.83 348.668 1789.83 341.816C1789.83 332.761 1791.34 324.889 1794.36 318.201C1797.38 311.43 1802.04 306.209 1808.32 302.539C1814.61 298.868 1822.66 297.033 1832.46 297.033C1842.42 297.033 1850.51 298.909 1856.71 302.661C1863 306.332 1867.58 311.552 1870.43 318.323C1873.38 325.012 1874.85 332.883 1874.85 341.938ZM1814.69 341.938C1814.69 347.159 1815.27 351.686 1816.41 355.52C1817.63 359.272 1819.55 362.168 1822.17 364.207C1824.78 366.247 1828.17 367.266 1832.34 367.266C1836.66 367.266 1840.09 366.247 1842.63 364.207C1845.24 362.168 1847.12 359.272 1848.26 355.52C1849.4 351.686 1849.98 347.159 1849.98 341.938C1849.98 334.025 1848.67 327.785 1846.06 323.217C1843.44 318.649 1838.91 316.365 1832.46 316.365C1828.21 316.365 1824.78 317.426 1822.17 319.546C1819.55 321.586 1817.63 324.522 1816.41 328.356C1815.27 332.109 1814.69 336.636 1814.69 341.938Z" fill="white"/>
<path d="M1976.39 385.742H1945.39L1913.42 324.196H1912.93C1913.09 325.583 1913.22 327.214 1913.3 329.09C1913.46 330.967 1913.58 332.924 1913.66 334.964C1913.75 337.003 1913.83 339.001 1913.91 340.959C1913.99 342.917 1914.03 344.711 1914.03 346.343V385.742H1893.08V298.378H1923.95L1955.81 359.068H1956.17C1956.09 357.681 1955.97 356.091 1955.81 354.296C1955.72 352.42 1955.64 350.544 1955.56 348.668C1955.48 346.71 1955.4 344.793 1955.32 342.917C1955.32 341.041 1955.32 339.368 1955.32 337.9V298.378H1976.39V385.742Z" fill="white"/>
<path d="M2051.36 385.742L2047.07 369.346H2018.65L2014.24 385.742H1988.27L2016.81 298.011H2048.3L2077.21 385.742H2051.36ZM2038.37 335.698C2037.97 334.148 2037.39 331.945 2036.66 329.09C2035.92 326.154 2035.19 323.136 2034.45 320.036C2033.72 316.936 2033.15 314.407 2032.74 312.45C2032.41 314.407 2031.88 316.855 2031.15 319.791C2030.49 322.728 2029.8 325.624 2029.06 328.479C2028.41 331.334 2027.84 333.74 2027.35 335.698L2023.55 350.014H2042.17L2038.37 335.698Z" fill="white"/>
<path d="M2089.04 385.742V298.378H2112.68V366.654H2146.37V385.742H2089.04Z" fill="white"/>
<path d="M1548.67 474.236C1548.67 484.351 1546.75 492.794 1542.91 499.565C1539.16 506.335 1533.85 511.392 1526.99 514.737C1520.13 518.081 1512.04 519.754 1502.73 519.754H1474.43V432.39H1504.69C1514.08 432.39 1522.05 434.021 1528.58 437.284C1535.11 440.466 1540.1 445.156 1543.53 451.355C1546.96 457.555 1548.67 465.182 1548.67 474.236ZM1524.17 475.093C1524.17 469.791 1523.44 465.386 1521.97 461.878C1520.58 458.371 1518.45 455.76 1515.6 454.047C1512.82 452.334 1509.27 451.478 1504.94 451.478H1498.08V500.421H1503.34C1510.53 500.421 1515.8 498.341 1519.15 494.181C1522.5 490.021 1524.17 483.658 1524.17 475.093Z" fill="white"/>
<path d="M1607.15 519.754H1561.58V506.294L1572.48 502.134V449.887L1561.58 445.849V432.39H1607.15V445.849L1596.25 449.887V502.134L1607.15 506.294V519.754Z" fill="white"/>
<path d="M1658.41 468.608H1696.15V515.716C1691.65 517.266 1686.47 518.53 1680.59 519.509C1674.79 520.488 1668.7 520.977 1662.33 520.977C1653.92 520.977 1646.53 519.346 1640.16 516.083C1633.87 512.82 1628.93 507.844 1625.34 501.155C1621.82 494.466 1620.07 486.024 1620.07 475.827C1620.07 466.691 1621.82 458.778 1625.34 452.09C1628.85 445.401 1633.99 440.262 1640.77 436.672C1647.63 433.002 1656.04 431.166 1666.01 431.166C1671.48 431.166 1676.67 431.696 1681.57 432.757C1686.47 433.736 1690.71 435.041 1694.31 436.672L1686.83 455.149C1683.73 453.599 1680.46 452.457 1677.03 451.722C1673.6 450.907 1669.97 450.499 1666.13 450.499C1660.9 450.499 1656.7 451.682 1653.51 454.047C1650.33 456.413 1648 459.553 1646.53 463.469C1645.14 467.384 1644.45 471.708 1644.45 476.439C1644.45 481.823 1645.22 486.391 1646.78 490.143C1648.33 493.895 1650.57 496.75 1653.51 498.708C1656.45 500.584 1660.05 501.522 1664.29 501.522C1665.27 501.522 1666.38 501.481 1667.6 501.4C1668.83 501.318 1670.01 501.196 1671.15 501.033C1672.38 500.87 1673.32 500.707 1673.97 500.543V486.839H1658.41V468.608Z" fill="white"/>
<path d="M1756.69 519.754H1711.12V506.294L1722.02 502.134V449.887L1711.12 445.849V432.39H1756.69V445.849L1745.79 449.887V502.134L1756.69 506.294V519.754Z" fill="white"/>
<path d="M1811.38 519.754H1787.74V451.722H1766.42V432.39H1832.7V451.722H1811.38V519.754Z" fill="white"/>
<path d="M1892.67 519.754L1888.38 503.358H1859.96L1855.55 519.754H1829.58L1858.12 432.023H1889.6L1918.51 519.754H1892.67ZM1879.68 469.709C1879.27 468.159 1878.7 465.957 1877.97 463.102C1877.23 460.165 1876.5 457.147 1875.76 454.047C1875.03 450.948 1874.45 448.419 1874.05 446.461C1873.72 448.419 1873.19 450.866 1872.45 453.803C1871.8 456.739 1871.1 459.635 1870.37 462.49C1869.72 465.345 1869.14 467.751 1868.65 469.709L1864.86 484.025H1883.48L1879.68 469.709Z" fill="white"/>
<path d="M1930.35 519.754V432.39H1953.99V500.666H1987.68V519.754H1930.35Z" fill="white"/>
<path d="M1512.53 653.765L1494.65 590.873H1494.16C1494.32 592.504 1494.48 594.707 1494.65 597.48C1494.81 600.254 1494.97 603.272 1495.14 606.535C1495.3 609.716 1495.38 612.816 1495.38 615.834V653.765H1474.43V566.401H1505.92L1524.17 628.437H1524.66L1542.55 566.401H1574.03V653.765H1552.35V615.467C1552.35 612.693 1552.39 609.757 1552.47 606.657C1552.55 603.476 1552.67 600.498 1552.84 597.725C1553 594.87 1553.12 592.627 1553.2 590.995H1552.71L1535.07 653.765H1512.53Z" fill="white"/>
<path d="M1648.98 653.765L1644.69 637.369H1616.27L1611.86 653.765H1585.89L1614.43 566.034H1645.92L1674.83 653.765H1648.98ZM1635.99 603.721C1635.59 602.171 1635.01 599.968 1634.28 597.113C1633.54 594.177 1632.81 591.158 1632.07 588.059C1631.34 584.959 1630.77 582.43 1630.36 580.472C1630.03 582.43 1629.5 584.877 1628.77 587.814C1628.11 590.751 1627.42 593.646 1626.68 596.501C1626.03 599.356 1625.46 601.763 1624.97 603.721L1621.17 618.036H1639.79L1635.99 603.721Z" fill="white"/>
<path d="M1715.33 566.401C1723.25 566.401 1729.82 567.38 1735.05 569.338C1740.36 571.296 1744.32 574.191 1746.93 578.025C1749.63 581.778 1750.98 586.509 1750.98 592.219C1750.98 595.726 1750.36 598.949 1749.14 601.885C1748 604.822 1746.32 607.432 1744.12 609.716C1741.91 612 1739.26 613.999 1736.15 615.712L1761.63 653.765H1734.81L1716.31 621.952H1710.3V653.765H1686.66V566.401H1715.33ZM1714.96 584.266H1710.3V604.21H1714.71C1717.16 604.21 1719.29 603.884 1721.08 603.231C1722.96 602.497 1724.43 601.355 1725.49 599.805C1726.56 598.174 1727.09 596.012 1727.09 593.32C1727.09 591.444 1726.68 589.853 1725.86 588.548C1725.05 587.161 1723.74 586.101 1721.94 585.367C1720.15 584.633 1717.82 584.266 1714.96 584.266Z" fill="white"/>
<path d="M1846.75 653.765H1820.04L1802.77 620.361L1795.78 624.521V653.765H1772.02V566.401H1795.78V604.332C1796.76 602.456 1797.91 600.58 1799.21 598.704C1800.52 596.746 1801.79 594.911 1803.01 593.198L1821.39 566.401H1847.24L1819.67 605.556L1846.75 653.765Z" fill="white"/>
<path d="M1910.51 653.765H1858.57V566.401H1910.51V585.367H1882.21V599.071H1908.43V618.036H1882.21V634.555H1910.51V653.765Z" fill="white"/>
<path d="M1966.85 653.765H1943.2V585.734H1921.89V566.401H1988.16V585.734H1966.85V653.765Z" fill="white"/>
<path d="M2043.39 653.765H1997.82V640.306L2008.72 636.145V583.899L1997.82 579.861V566.401H2043.39V579.861L2032.49 583.899V636.145L2043.39 640.306V653.765Z" fill="white"/>
<path d="M2142.79 653.765H2111.8L2079.83 592.219H2079.34C2079.5 593.606 2079.62 595.237 2079.7 597.113C2079.87 598.989 2079.99 600.947 2080.07 602.986C2080.15 605.026 2080.23 607.024 2080.32 608.982C2080.4 610.94 2080.44 612.734 2080.44 614.366V653.765H2059.49V566.401H2090.36L2122.21 627.091H2122.58C2122.5 625.704 2122.38 624.114 2122.21 622.319C2122.13 620.443 2122.05 618.567 2121.97 616.69C2121.89 614.733 2121.81 612.816 2121.72 610.94C2121.72 609.064 2121.72 607.391 2121.72 605.923V566.401H2142.79V653.765Z" fill="white"/>
<path d="M2199.27 602.619H2237V649.727C2232.51 651.277 2227.32 652.541 2221.44 653.52C2215.64 654.499 2209.56 654.989 2203.19 654.989C2194.78 654.989 2187.39 653.357 2181.01 650.094C2174.73 646.831 2169.78 641.855 2166.19 635.167C2162.68 628.478 2160.92 620.035 2160.92 609.838C2160.92 600.702 2162.68 592.79 2166.19 586.101C2169.7 579.412 2174.85 574.273 2181.63 570.684C2188.49 567.013 2196.9 565.178 2206.86 565.178C2212.34 565.178 2217.52 565.708 2222.42 566.768C2227.32 567.747 2231.57 569.052 2235.16 570.684L2227.69 589.16C2224.59 587.61 2221.32 586.468 2217.89 585.734C2214.46 584.918 2210.82 584.51 2206.99 584.51C2201.76 584.51 2197.55 585.693 2194.37 588.059C2191.18 590.424 2188.86 593.565 2187.39 597.48C2186 601.396 2185.3 605.719 2185.3 610.45C2185.3 615.834 2186.08 620.402 2187.63 624.154C2189.18 627.907 2191.43 630.762 2194.37 632.719C2197.31 634.596 2200.9 635.534 2205.15 635.534C2206.13 635.534 2207.23 635.493 2208.46 635.411C2209.68 635.33 2210.87 635.207 2212.01 635.044C2213.23 634.881 2214.17 634.718 2214.83 634.555V620.851H2199.27V602.619Z" fill="white"/>
<path d="M1528.09 787.776L1523.8 771.38H1495.38L1490.97 787.776H1465L1493.54 700.046H1525.03L1553.94 787.776H1528.09ZM1515.1 737.732C1514.7 736.182 1514.12 733.98 1513.39 731.125C1512.65 728.188 1511.92 725.17 1511.18 722.07C1510.45 718.97 1509.88 716.442 1509.47 714.484C1509.14 716.442 1508.61 718.889 1507.88 721.825C1507.22 724.762 1506.53 727.658 1505.79 730.513C1505.14 733.368 1504.57 735.774 1504.08 737.732L1500.28 752.048H1518.9L1515.1 737.732Z" fill="white"/>
<path d="M1598.54 736.631H1636.27V783.739C1631.78 785.288 1626.59 786.553 1620.71 787.532C1614.91 788.511 1608.83 789 1602.46 789C1594.05 789 1586.66 787.369 1580.28 784.106C1574 780.843 1569.06 775.867 1565.46 769.178C1561.95 762.489 1560.19 754.046 1560.19 743.85C1560.19 734.714 1561.95 726.801 1565.46 720.112C1568.97 713.423 1574.12 708.284 1580.9 704.695C1587.76 701.024 1596.17 699.189 1606.13 699.189C1611.61 699.189 1616.79 699.719 1621.69 700.78C1626.59 701.759 1630.84 703.064 1634.43 704.695L1626.96 723.171C1623.86 721.621 1620.59 720.479 1617.16 719.745C1613.73 718.93 1610.09 718.522 1606.26 718.522C1601.03 718.522 1596.82 719.704 1593.64 722.07C1590.45 724.436 1588.13 727.576 1586.66 731.492C1585.27 735.407 1584.57 739.73 1584.57 744.462C1584.57 749.845 1585.35 754.413 1586.9 758.166C1588.45 761.918 1590.7 764.773 1593.64 766.731C1596.58 768.607 1600.17 769.545 1604.42 769.545C1605.4 769.545 1606.5 769.504 1607.73 769.423C1608.95 769.341 1610.14 769.219 1611.28 769.056C1612.5 768.892 1613.44 768.729 1614.1 768.566V754.862H1598.54V736.631Z" fill="white"/>
<path d="M1708.46 787.776H1656.51V700.413H1708.46V719.378H1680.16V733.082H1706.37V752.048H1680.16V768.566H1708.46V787.776Z" fill="white"/>
<path d="M1809.5 787.776H1778.51L1746.53 726.23H1746.04C1746.21 727.617 1746.33 729.248 1746.41 731.125C1746.57 733.001 1746.7 734.958 1746.78 736.998C1746.86 739.037 1746.94 741.036 1747.02 742.993C1747.11 744.951 1747.15 746.746 1747.15 748.377V787.776H1726.2V700.413H1757.07L1788.92 761.102H1789.29C1789.21 759.716 1789.08 758.125 1788.92 756.33C1788.84 754.454 1788.76 752.578 1788.68 750.702C1788.59 748.744 1788.51 746.827 1788.43 744.951C1788.43 743.075 1788.43 741.403 1788.43 739.934V700.413H1809.5V787.776Z" fill="white"/>
<path d="M1869.77 718.522C1867 718.522 1864.5 719.133 1862.3 720.357C1860.09 721.499 1858.22 723.212 1856.66 725.496C1855.11 727.699 1853.93 730.39 1853.11 733.572C1852.3 736.753 1851.89 740.383 1851.89 744.462C1851.89 749.927 1852.58 754.536 1853.97 758.288C1855.36 762.04 1857.48 764.895 1860.34 766.853C1863.2 768.729 1866.79 769.667 1871.12 769.667C1874.96 769.667 1878.67 769.137 1882.27 768.077C1885.94 767.016 1889.62 765.711 1893.29 764.161V784.106C1889.46 785.819 1885.49 787.042 1881.41 787.776C1877.41 788.592 1873.12 789 1868.55 789C1859.07 789 1851.32 787.124 1845.27 783.372C1839.23 779.619 1834.78 774.399 1831.92 767.71C1829.06 760.939 1827.63 753.149 1827.63 744.339C1827.63 737.732 1828.53 731.696 1830.33 726.23C1832.2 720.683 1834.94 715.911 1838.53 711.914C1842.13 707.836 1846.54 704.695 1851.76 702.493C1857.07 700.29 1863.16 699.189 1870.02 699.189C1874.26 699.189 1878.72 699.679 1883.37 700.657C1888.03 701.636 1892.6 703.186 1897.09 705.307L1889.86 723.905C1886.68 722.356 1883.45 721.091 1880.19 720.112C1876.92 719.052 1873.45 718.522 1869.77 718.522Z" fill="white"/>
<path d="M1944.06 732.838L1959.13 700.413H1984.73L1955.95 753.638V787.776H1932.18V754.373L1903.39 700.413H1929.12L1944.06 732.838Z" fill="white"/>
</svg>
