<svg width="120" height="120" viewBox="0 0 120 120" fill="none" xmlns="http://www.w3.org/2000/svg">
<g id="045-money">
<g id="Group">
<path id="Vector" d="M117.656 9.61145H39.0452C37.7507 9.61145 36.7014 10.6607 36.7014 11.9552V60.2911C36.7014 61.5855 37.7507 62.6348 39.0452 62.6348H117.656C118.95 62.6348 120 61.5855 120 60.2911V11.9552C120 10.6607 118.95 9.61145 117.656 9.61145ZM115.312 57.9473H41.3889V14.299H115.312V57.9473Z" fill="#157FE1"/>
<path id="Vector_2" d="M50.4448 43.596C53.4022 43.596 53.9501 44.4192 54.1566 44.729C54.8691 45.7994 54.9652 48.0295 54.9652 50.0695C54.9652 51.3639 56.0145 52.4132 57.309 52.4132H99.3922C100.686 52.4132 101.736 51.3639 101.736 50.0695C101.736 48.0295 101.832 45.7996 102.545 44.729C102.751 44.4192 103.299 43.5958 106.257 43.5958C107.551 43.5958 108.6 42.5465 108.6 41.2521V30.9937C108.6 29.6992 107.551 28.65 106.257 28.65C103.299 28.65 102.751 27.8266 102.545 27.5167C101.832 26.4464 101.736 24.2165 101.736 22.1765C101.736 20.8821 100.686 19.8328 99.3922 19.8328H57.3092C56.0148 19.8328 54.9655 20.8821 54.9655 22.1765C54.9655 24.2165 54.8694 26.4464 54.1569 27.517C53.9504 27.8268 53.4024 28.6502 50.4451 28.6502C49.1508 28.6502 48.1013 29.6995 48.1013 30.9939V41.2523C48.1011 42.5467 49.1506 43.596 50.4448 43.596ZM52.7886 33.1835C54.6898 32.8999 56.7186 32.1274 58.0583 30.1148C59.0539 28.6197 59.4537 26.7646 59.5909 24.5205H97.1101C97.2472 26.7644 97.6473 28.6195 98.6426 30.1148C99.9828 32.1274 102.011 32.8999 103.913 33.1835V39.0628C102.011 39.3464 99.9826 40.1189 98.6426 42.1314C97.6473 43.6267 97.2472 45.4821 97.1101 47.726H59.5911C59.454 45.4821 59.0541 43.627 58.0585 42.1317C56.7186 40.1191 54.6901 39.3466 52.7888 39.063L52.7886 33.1835Z" fill="#157FE1"/>
<path id="Vector_3" d="M116.276 72.4591C112.531 69.8275 107.477 70.2841 104.257 73.5454C104.154 73.65 104.061 73.7639 103.979 73.886L98.8373 81.5465C97.3978 78.1488 94.0533 75.7619 90.1676 75.7619L53.1757 75.7371H53.1741C52.613 75.7371 52.0709 75.9382 51.6457 76.304L42.3785 84.2768H35.6156V82.2168C35.6156 80.9224 34.5661 79.8731 33.2719 79.8731H22.9523V79.5525C22.9523 78.258 21.9028 77.2087 20.6086 77.2087H2.34375C1.0493 77.2087 0 78.258 0 79.5525V107.039C0 108.334 1.0493 109.383 2.34375 109.383H20.6086C21.9028 109.383 22.9523 108.334 22.9523 107.039V106.719H33.2716C34.5659 106.719 35.6154 105.67 35.6154 104.375V102.211H43.3866L50.407 109.653C50.8502 110.123 51.4671 110.388 52.1119 110.388C52.1229 110.388 52.1339 110.388 52.1449 110.388L100.547 109.709C101.302 109.699 102.006 109.325 102.437 108.705L117.816 86.6214C117.825 86.6076 117.835 86.5936 117.844 86.5797C119.333 84.34 120.095 81.7715 119.99 79.3474C119.867 76.5021 118.548 74.0559 116.276 72.4591ZM18.2648 104.696H4.6875V81.8962H18.2648V104.696ZM30.9279 102.031H22.9523V84.5601H30.9279V102.031ZM113.954 83.9643L99.278 105.039L53.1098 105.687L46.103 98.2591C45.66 97.7896 45.0434 97.5236 44.3981 97.5236H35.6156V88.9643H43.248C43.8091 88.9643 44.3512 88.7632 44.7764 88.3973L54.0429 80.4253L90.1659 80.4494C92.7785 80.4494 94.9041 82.6141 94.9041 85.275C94.9041 87.9356 92.7788 90.1 90.1659 90.1C90.1629 90.1 90.1598 90.1 90.1568 90.1H69.9349C69.2916 90.1 68.6768 90.3644 68.2341 90.8313L63.3033 96.0321C62.4127 96.9714 62.4523 98.4548 63.3916 99.3454C63.8449 99.775 64.4248 99.9883 65.0037 99.9883C65.6245 99.9883 66.2442 99.7432 66.705 99.2571L70.9425 94.7873L94.3441 94.7885H94.3448C95.1258 94.7885 95.8556 94.3994 96.2909 93.7509L107.736 76.6997C109.345 75.2004 111.771 75.0218 113.58 76.2937C116.023 78.0107 115.618 81.4474 113.954 83.9643Z" fill="#157FE1"/>
</g>
</g>
</svg>
