<!-- <svg id='insta' width="28" height="31" viewBox="0 0 28 31" fill="none" xmlns="http://www.w3.org/2000/svg">
<path d="M13.6309 9.01221C9.9043 9.01221 6.89844 12.0181 6.89844 15.7446C6.89844 19.4712 9.9043 22.477 13.6309 22.477C17.3574 22.477 20.3633 19.4712 20.3633 15.7446C20.3633 12.0181 17.3574 9.01221 13.6309 9.01221ZM13.6309 20.1216C11.2227 20.1216 9.25391 18.1587 9.25391 15.7446C9.25391 13.3306 11.2168 11.3677 13.6309 11.3677C16.0449 11.3677 18.0078 13.3306 18.0078 15.7446C18.0078 18.1587 16.0391 20.1216 13.6309 20.1216ZM22.209 8.73682C22.209 9.60986 21.5059 10.3071 20.6387 10.3071C19.7656 10.3071 19.0684 9.604 19.0684 8.73682C19.0684 7.86963 19.7715 7.1665 20.6387 7.1665C21.5059 7.1665 22.209 7.86963 22.209 8.73682ZM26.668 10.3306C26.5684 8.22705 26.0879 6.36377 24.5469 4.82861C23.0117 3.29346 21.1484 2.81299 19.0449 2.70752C16.877 2.58447 10.3789 2.58447 8.21094 2.70752C6.11328 2.80713 4.25 3.2876 2.70898 4.82275C1.16797 6.35791 0.693359 8.22119 0.587891 10.3247C0.464844 12.4927 0.464844 18.9907 0.587891 21.1587C0.6875 23.2622 1.16797 25.1255 2.70898 26.6606C4.25 28.1958 6.10742 28.6763 8.21094 28.7817C10.3789 28.9048 16.877 28.9048 19.0449 28.7817C21.1484 28.6821 23.0117 28.2017 24.5469 26.6606C26.082 25.1255 26.5625 23.2622 26.668 21.1587C26.791 18.9907 26.791 12.4985 26.668 10.3306ZM23.8672 23.4849C23.4102 24.6333 22.5254 25.5181 21.3711 25.981C19.6426 26.6665 15.541 26.5083 13.6309 26.5083C11.7207 26.5083 7.61328 26.6606 5.89062 25.981C4.74219 25.5239 3.85742 24.6392 3.39453 23.4849C2.70898 21.7563 2.86719 17.6548 2.86719 15.7446C2.86719 13.8345 2.71484 9.72705 3.39453 8.00439C3.85156 6.85596 4.73633 5.97119 5.89062 5.5083C7.61914 4.82275 11.7207 4.98096 13.6309 4.98096C15.541 4.98096 19.6484 4.82861 21.3711 5.5083C22.5195 5.96533 23.4043 6.8501 23.8672 8.00439C24.5527 9.73291 24.3945 13.8345 24.3945 15.7446C24.3945 17.6548 24.5527 21.7622 23.8672 23.4849Z" fill="white"/>
</svg>
<svg id='watsap' width="28" height="31" viewBox="0 0 28 31" fill="none" xmlns="http://www.w3.org/2000/svg">
<path d="M23.0684 6.43945C20.6133 3.97852 17.3437 2.625 13.8691 2.625C6.69727 2.625 0.861328 8.46094 0.861328 15.6328C0.861328 17.9238 1.45898 20.1621 2.5957 22.1367L0.75 28.875L7.64648 27.0645C9.54492 28.1016 11.6836 28.6465 13.8633 28.6465H13.8691C21.0352 28.6465 27 22.8105 27 15.6387C27 12.1641 25.5234 8.90039 23.0684 6.43945ZM13.8691 26.4551C11.9238 26.4551 10.0195 25.9336 8.36133 24.9492L7.96875 24.7148L3.87891 25.7871L4.96875 21.7969L4.71094 21.3867C3.62695 19.6641 3.05859 17.6777 3.05859 15.6328C3.05859 9.67383 7.91016 4.82227 13.875 4.82227C16.7637 4.82227 19.4766 5.94727 21.5156 7.99219C23.5547 10.0371 24.8086 12.75 24.8027 15.6387C24.8027 21.6035 19.8281 26.4551 13.8691 26.4551ZM19.7988 18.3574C19.4766 18.1934 17.877 17.4082 17.5781 17.3027C17.2793 17.1914 17.0625 17.1387 16.8457 17.4668C16.6289 17.7949 16.0078 18.5215 15.8145 18.7441C15.627 18.9609 15.4336 18.9902 15.1113 18.8262C13.2012 17.8711 11.9473 17.1211 10.6875 14.959C10.3535 14.3848 11.0215 14.4258 11.6426 13.1836C11.748 12.9668 11.6953 12.7793 11.6133 12.6152C11.5312 12.4512 10.8809 10.8516 10.6113 10.2012C10.3477 9.56836 10.0781 9.65625 9.87891 9.64453C9.69141 9.63281 9.47461 9.63281 9.25781 9.63281C9.04102 9.63281 8.68945 9.71484 8.39062 10.0371C8.0918 10.3652 7.25391 11.1504 7.25391 12.75C7.25391 14.3496 8.41992 15.8965 8.57813 16.1133C8.74219 16.3301 10.8691 19.6113 14.1328 21.0234C16.1953 21.9141 17.0039 21.9902 18.0352 21.8379C18.6621 21.7441 19.957 21.0527 20.2266 20.291C20.4961 19.5293 20.4961 18.8789 20.4141 18.7441C20.3379 18.5977 20.1211 18.5156 19.7988 18.3574Z" fill="white"/>
</svg>
<svg id='link' width="27" height="31" viewBox="0 0 27 31" fill="none" xmlns="http://www.w3.org/2000/svg">
<path d="M24.375 2.625H1.86914C0.837891 2.625 0 3.47461 0 4.51758V26.9824C0 28.0254 0.837891 28.875 1.86914 28.875H24.375C25.4063 28.875 26.25 28.0254 26.25 26.9824V4.51758C26.25 3.47461 25.4063 2.625 24.375 2.625ZM7.93359 25.125H4.04297V12.5977H7.93945V25.125H7.93359ZM5.98828 10.8867C4.74023 10.8867 3.73242 9.87305 3.73242 8.63086C3.73242 7.38867 4.74023 6.375 5.98828 6.375C7.23047 6.375 8.24414 7.38867 8.24414 8.63086C8.24414 9.87891 7.23633 10.8867 5.98828 10.8867ZM22.5176 25.125H18.627V19.0312C18.627 17.5781 18.5977 15.709 16.6055 15.709C14.5781 15.709 14.2676 17.291 14.2676 18.9258V25.125H10.377V12.5977H14.1094V14.3086H14.1621C14.6836 13.3242 15.9551 12.2871 17.8477 12.2871C21.7852 12.2871 22.5176 14.8828 22.5176 18.2578V25.125Z" fill="white"/>
</svg>
<svg id='face' width="31" height="31" viewBox="0 0 31 31" fill="none" xmlns="http://www.w3.org/2000/svg">
<path d="M29.5312 15.75C29.5312 7.72266 23.0273 1.21875 15 1.21875C6.97266 1.21875 0.46875 7.72266 0.46875 15.75C0.46875 23.0027 5.78262 29.0145 12.7295 30.1055V19.9506H9.03809V15.75H12.7295V12.5484C12.7295 8.90684 14.8975 6.89531 18.218 6.89531C19.8082 6.89531 21.4711 7.17891 21.4711 7.17891V10.7531H19.6383C17.8336 10.7531 17.2705 11.8734 17.2705 13.0225V15.75H21.3006L20.6561 19.9506H17.2705V30.1055C24.2174 29.0145 29.5312 23.0027 29.5312 15.75Z" fill="white"/>
</svg> -->

<svg id='icon' fill="white" viewBox="0 0 50 35">
  <path stroke="white" stroke-width="2" d="M0 1.052h50m-50 16h50m-50 16h50"/>
</svg>


