<svg aria-hidden="true" style="position:absolute;width:0;height:0;overflow:hidden" xmlns="http://www.w3.org/2000/svg">
  <defs>

    <symbol id="arrow-right" viewBox="0 0 32 32">
      <path d="M31 16 16 1v9H0v12h16v9z"/>
    </symbol>
    <symbol id="arrow-left" viewBox="0 0 32 32">
      <path d="m1 16 15 15v-9h16V10H16V1z"/>
    </symbol>

<symbol id="icon-x" width='50' height='40' viewBox="0 0 20 20">
<path d="M5.293 6.707l5.293 5.293-5.293 5.293c-0.391 0.391-0.391 1.024 0 1.414s1.024 0.391 1.414 0l5.293-5.293 5.293 5.293c0.391 0.391 1.024 0.391 1.414 0s0.391-1.024 0-1.414l-5.293-5.293 5.293-5.293c0.391-0.391 0.391-1.024 0-1.414s-1.024-0.391-1.414 0l-5.293 5.293-5.293-5.293c-0.391-0.391-1.024-0.391-1.414 0s-0.391 1.024 0 1.414z"></path>
</symbol>


   <symbol id="check-el" viewBox="0 0 32 32">
      <path stroke-width="1.6" d="M.8.8h30.4v30.4H.8V.8z"/>
      <path stroke-width="1.6" d="M.8.8h30.4v30.4H.8V.8z"/>
    </symbol>

    <symbol id="mark" viewBox="0 0 32 32">
      <path d="M12 21.6 6.4 16l-1.867 1.867L12 25.334l16-16-1.867-1.867L12 21.6z"/>
    </symbol>

<symbol id="play3" viewBox="0 0 32 32">
      <path d="m6 4 20 12L6 28z"/>
    </symbol>

<symbol id="close" viewBox="0 10 35 10">
<path  stroke="#f9f9f9" style="stroke: var(--color3, #f9f9f9)" stroke-linejoin="miter" stroke-linecap="butt" stroke-miterlimit="4" stroke-width="1.641" d="M1.325 30.377l29.009-29.009"></path>
<path  stroke="#f9f9f9" style="stroke: var(--color3, #f9f9f9)" stroke-linejoin="miter" stroke-linecap="butt" stroke-miterlimit="4" stroke-width="1.641" d="M1.401 1.881l29.009 29.009"></path>
</symbol>

 
<symbol id="_menu_24px" viewBox="0 0 20 32">
<path d="M0 2.333v-5.333h48v5.333h-48zM48 18.667v-5.333h-48v2.333h48zM48 32v-5.333h-48v2.333h48z"></path>
</symbol>

<symbol id="icon-accordeon" fill='white' viewBox="0 0 21 32">
<path stroke-linejoin="miter" stroke-linecap="butt" stroke-miterlimit="4" stroke-width="1.9394" d="M0.97 0.97l17.939 15.515-17.939 14.061"></path>
</symbol>

  </defs>
</svg>


 
