<svg width="28" height="31" viewBox="0 0 28 31" fill="none" xmlns="http://www.w3.org/2000/svg">
<path d="M23.0684 6.43945C20.6133 3.97852 17.3437 2.625 13.8691 2.625C6.69727 2.625 0.861328 8.46094 0.861328 15.6328C0.861328 17.9238 1.45898 20.1621 2.5957 22.1367L0.75 28.875L7.64648 27.0645C9.54492 28.1016 11.6836 28.6465 13.8633 28.6465H13.8691C21.0352 28.6465 27 22.8105 27 15.6387C27 12.1641 25.5234 8.90039 23.0684 6.43945ZM13.8691 26.4551C11.9238 26.4551 10.0195 25.9336 8.36133 24.9492L7.96875 24.7148L3.87891 25.7871L4.96875 21.7969L4.71094 21.3867C3.62695 19.6641 3.05859 17.6777 3.05859 15.6328C3.05859 9.67383 7.91016 4.82227 13.875 4.82227C16.7637 4.82227 19.4766 5.94727 21.5156 7.99219C23.5547 10.0371 24.8086 12.75 24.8027 15.6387C24.8027 21.6035 19.8281 26.4551 13.8691 26.4551ZM19.7988 18.3574C19.4766 18.1934 17.877 17.4082 17.5781 17.3027C17.2793 17.1914 17.0625 17.1387 16.8457 17.4668C16.6289 17.7949 16.0078 18.5215 15.8145 18.7441C15.627 18.9609 15.4336 18.9902 15.1113 18.8262C13.2012 17.8711 11.9473 17.1211 10.6875 14.959C10.3535 14.3848 11.0215 14.4258 11.6426 13.1836C11.748 12.9668 11.6953 12.7793 11.6133 12.6152C11.5312 12.4512 10.8809 10.8516 10.6113 10.2012C10.3477 9.56836 10.0781 9.65625 9.87891 9.64453C9.69141 9.63281 9.47461 9.63281 9.25781 9.63281C9.04102 9.63281 8.68945 9.71484 8.39062 10.0371C8.0918 10.3652 7.25391 11.1504 7.25391 12.75C7.25391 14.3496 8.41992 15.8965 8.57813 16.1133C8.74219 16.3301 10.8691 19.6113 14.1328 21.0234C16.1953 21.9141 17.0039 21.9902 18.0352 21.8379C18.6621 21.7441 19.957 21.0527 20.2266 20.291C20.4961 19.5293 20.4961 18.8789 20.4141 18.7441C20.3379 18.5977 20.1211 18.5156 19.7988 18.3574Z" fill="white"/>
</svg>
